# MagicaVoxel @ Ephtracy

# group
o 

# material
mtllib untitled.mtl
usemtl palette

# normals
vn -1 0 0
vn 1 0 0
vn 0 0 1
vn 0 0 -1
vn 0 -1 0
vn 0 1 0

# texcoords
vt 0.0214844 0.5
vt 0.279297 0.5
vt 0.958984 0.5
vt 0.994141 0.5

# verts
v -0.3 0.3 0
v -0.3 0.3 -0.5
v -0.3 0.7 0
v -0.3 0.7 -0.5
v -0.2 0.2 0
v -0.2 0.2 -0.4
v -0.2 0.3 0.1
v -0.2 0.3 0
v -0.2 0.3 -0.4
v -0.2 0.4 0.1
v -0.2 0.4 0
v -0.2 0.5 0.1
v -0.2 0.5 0
v -0.2 0.6 0.1
v -0.2 0.6 0
v -0.1 0.2 -0.4
v -0.1 0.2 -0.5
v -0.1 0.3 0.2
v -0.1 0.3 0.1
v -0.1 0.3 -0.4
v -0.1 0.3 -0.5
v -0.1 0.4 0.2
v -0.1 0.4 0.1
v -0.1 0.7 -0.2
v -0.1 0.7 -0.3
v -0.1 0.8 -0.2
v -0.1 0.8 -0.3
v -0.1 0.8 -0.4
v -0.1 0.9 -0.3
v -0.1 0.9 -0.4
v 0 0.5 0.1
v 0 0.5 0
v 0 0.6 0.1
v 0 0.6 0
v -0.1 0.5 0.1
v -0.1 0.5 0
v -0.1 0.6 0.1
v -0.1 0.6 0
v 0 0.2 -0.4
v 0 0.2 -0.5
v 0 0.3 0.2
v 0 0.3 0.1
v 0 0.3 -0.4
v 0 0.3 -0.5
v 0 0.4 0.2
v 0 0.4 0.1
v 0 0.7 -0.2
v 0 0.7 -0.3
v 0 0.8 -0.2
v 0 0.8 -0.3
v 0 0.8 -0.4
v 0 0.9 -0.3
v 0 0.9 -0.4
v 0.1 0.2 0
v 0.1 0.2 -0.4
v 0.1 0.3 0.1
v 0.1 0.3 0
v 0.1 0.3 -0.4
v 0.1 0.4 0.1
v 0.1 0.4 0
v 0.1 0.5 0.1
v 0.1 0.5 0
v 0.1 0.6 0.1
v 0.1 0.6 0
v 0.2 0.3 0
v 0.2 0.3 -0.5
v 0.2 0.7 0
v 0.2 0.7 -0.5
v -0.1 0.3 0.2
v -0.1 0.4 0.2
v 0 0.3 0.2
v 0 0.4 0.2
v -0.2 0.3 0.1
v -0.2 0.4 0.1
v -0.2 0.5 0.1
v -0.2 0.6 0.1
v -0.1 0.3 0.1
v -0.1 0.4 0.1
v -0.1 0.5 0.1
v -0.1 0.6 0.1
v 0 0.3 0.1
v 0 0.4 0.1
v 0 0.5 0.1
v 0 0.6 0.1
v 0.1 0.3 0.1
v 0.1 0.4 0.1
v 0.1 0.5 0.1
v 0.1 0.6 0.1
v -0.3 0.3 0
v -0.3 0.7 0
v -0.2 0.2 0
v -0.2 0.3 0
v -0.2 0.4 0
v -0.2 0.5 0
v -0.2 0.6 0
v -0.1 0.5 0
v -0.1 0.6 0
v 0 0.5 0
v 0 0.6 0
v 0.1 0.2 0
v 0.1 0.3 0
v 0.1 0.4 0
v 0.1 0.5 0
v 0.1 0.6 0
v 0.2 0.3 0
v 0.2 0.7 0
v -0.1 0.7 -0.2
v -0.1 0.8 -0.2
v 0 0.7 -0.2
v 0 0.8 -0.2
v -0.1 0.8 -0.3
v -0.1 0.9 -0.3
v 0 0.8 -0.3
v 0 0.9 -0.3
v -0.1 0.7 -0.3
v -0.1 0.8 -0.3
v 0 0.7 -0.3
v 0 0.8 -0.3
v -0.2 0.2 -0.4
v -0.2 0.3 -0.4
v -0.1 0.2 -0.4
v -0.1 0.3 -0.4
v -0.1 0.8 -0.4
v -0.1 0.9 -0.4
v 0 0.2 -0.4
v 0 0.3 -0.4
v 0 0.8 -0.4
v 0 0.9 -0.4
v 0.1 0.2 -0.4
v 0.1 0.3 -0.4
v -0.3 0.3 -0.5
v -0.3 0.7 -0.5
v -0.1 0.2 -0.5
v -0.1 0.3 -0.5
v -0.1 0.4 -0.5
v 0 0.2 -0.5
v 0 0.3 -0.5
v 0 0.4 -0.5
v 0.2 0.3 -0.5
v 0.2 0.7 -0.5
v -0.2 0.2 0
v 0.1 0.2 0
v -0.2 0.2 -0.4
v -0.1 0.2 -0.4
v 0 0.2 -0.4
v 0.1 0.2 -0.4
v -0.1 0.2 -0.5
v 0 0.2 -0.5
v -0.1 0.3 0.2
v 0 0.3 0.2
v -0.2 0.3 0.1
v -0.1 0.3 0.1
v 0 0.3 0.1
v 0.1 0.3 0.1
v -0.3 0.3 0
v -0.2 0.3 0
v 0.1 0.3 0
v 0.2 0.3 0
v -0.2 0.3 -0.4
v -0.1 0.3 -0.4
v 0 0.3 -0.4
v 0.1 0.3 -0.4
v -0.3 0.3 -0.5
v -0.1 0.3 -0.5
v 0 0.3 -0.5
v 0.2 0.3 -0.5
v -0.2 0.5 0.1
v -0.1 0.5 0.1
v 0 0.5 0.1
v 0.1 0.5 0.1
v -0.2 0.5 0
v -0.1 0.5 0
v 0 0.5 0
v 0.1 0.5 0
v -0.1 0.8 -0.3
v 0 0.8 -0.3
v -0.1 0.8 -0.4
v 0 0.8 -0.4
v -0.1 0.4 0.2
v 0 0.4 0.2
v -0.2 0.4 0.1
v -0.1 0.4 0.1
v 0 0.4 0.1
v 0.1 0.4 0.1
v -0.2 0.4 0
v 0.1 0.4 0
v -0.2 0.6 0.1
v -0.1 0.6 0.1
v 0 0.6 0.1
v 0.1 0.6 0.1
v -0.2 0.6 0
v -0.1 0.6 0
v 0 0.6 0
v 0.1 0.6 0
v -0.3 0.7 0
v 0.2 0.7 0
v -0.1 0.7 -0.2
v 0 0.7 -0.2
v -0.1 0.7 -0.3
v 0 0.7 -0.3
v -0.3 0.7 -0.5
v 0.2 0.7 -0.5
v -0.1 0.8 -0.2
v 0 0.8 -0.2
v -0.1 0.8 -0.3
v 0 0.8 -0.3
v -0.1 0.9 -0.3
v 0 0.9 -0.3
v -0.1 0.9 -0.4
v 0 0.9 -0.4

# faces
f 3/2/1 2/2/1 1/2/1
f 4/2/1 2/2/1 3/2/1
f 8/3/1 6/3/1 5/3/1
f 9/3/1 6/3/1 8/3/1
f 10/1/1 8/1/1 7/1/1
f 11/1/1 8/1/1 10/1/1
f 14/4/1 13/4/1 12/4/1
f 15/4/1 13/4/1 14/4/1
f 20/3/1 17/3/1 16/3/1
f 21/3/1 17/3/1 20/3/1
f 22/1/1 19/1/1 18/1/1
f 23/1/1 19/1/1 22/1/1
f 26/2/1 25/2/1 24/2/1
f 27/2/1 25/2/1 26/2/1
f 29/2/1 28/2/1 27/2/1
f 30/2/1 28/2/1 29/2/1
f 33/4/1 32/4/1 31/4/1
f 34/4/1 32/4/1 33/4/1
f 35/4/2 36/4/2 37/4/2
f 37/4/2 36/4/2 38/4/2
f 39/3/2 40/3/2 43/3/2
f 43/3/2 40/3/2 44/3/2
f 41/1/2 42/1/2 45/1/2
f 45/1/2 42/1/2 46/1/2
f 47/2/2 48/2/2 49/2/2
f 49/2/2 48/2/2 50/2/2
f 50/2/2 51/2/2 52/2/2
f 52/2/2 51/2/2 53/2/2
f 54/3/2 55/3/2 57/3/2
f 57/3/2 55/3/2 58/3/2
f 56/1/2 57/1/2 59/1/2
f 59/1/2 57/1/2 60/1/2
f 61/4/2 62/4/2 63/4/2
f 63/4/2 62/4/2 64/4/2
f 65/2/2 66/2/2 67/2/2
f 67/2/2 66/2/2 68/2/2
f 71/1/3 70/1/3 69/1/3
f 72/1/3 70/1/3 71/1/3
f 77/1/3 74/1/3 73/1/3
f 78/1/3 74/1/3 77/1/3
f 79/4/3 76/4/3 75/4/3
f 80/4/3 76/4/3 79/4/3
f 85/1/3 82/1/3 81/1/3
f 86/1/3 82/1/3 85/1/3
f 87/4/3 84/4/3 83/4/3
f 88/4/3 84/4/3 87/4/3
f 92/2/3 90/2/3 89/2/3
f 93/2/3 90/2/3 92/2/3
f 94/2/3 90/2/3 93/2/3
f 95/2/3 90/2/3 94/2/3
f 96/2/3 94/2/3 93/2/3
f 97/2/3 90/2/3 95/2/3
f 98/2/3 96/2/3 93/2/3
f 98/2/3 97/2/3 96/2/3
f 99/2/3 90/2/3 97/2/3
f 99/2/3 97/2/3 98/2/3
f 100/3/3 92/3/3 91/3/3
f 101/3/3 92/3/3 100/3/3
f 102/2/3 98/2/3 93/2/3
f 103/2/3 98/2/3 102/2/3
f 104/2/3 90/2/3 99/2/3
f 105/2/3 103/2/3 102/2/3
f 105/2/3 104/2/3 103/2/3
f 105/2/3 102/2/3 101/2/3
f 106/2/3 90/2/3 104/2/3
f 106/2/3 104/2/3 105/2/3
f 109/2/3 108/2/3 107/2/3
f 110/2/3 108/2/3 109/2/3
f 113/2/3 112/2/3 111/2/3
f 114/2/3 112/2/3 113/2/3
f 115/2/4 116/2/4 117/2/4
f 117/2/4 116/2/4 118/2/4
f 119/3/4 120/3/4 121/3/4
f 121/3/4 120/3/4 122/3/4
f 123/2/4 124/2/4 127/2/4
f 127/2/4 124/2/4 128/2/4
f 125/3/4 126/3/4 129/3/4
f 129/3/4 126/3/4 130/3/4
f 131/2/4 132/2/4 134/2/4
f 134/2/4 132/2/4 135/2/4
f 133/3/4 134/3/4 136/3/4
f 134/3/4 135/3/4 136/3/4
f 136/3/4 135/3/4 137/3/4
f 135/2/4 132/2/4 138/2/4
f 137/3/4 135/3/4 138/3/4
f 137/2/4 138/2/4 139/2/4
f 138/2/4 132/2/4 140/2/4
f 139/2/4 138/2/4 140/2/4
f 143/3/5 142/3/5 141/3/5
f 144/3/5 142/3/5 143/3/5
f 145/3/5 142/3/5 144/3/5
f 146/3/5 142/3/5 145/3/5
f 147/3/5 145/3/5 144/3/5
f 148/3/5 145/3/5 147/3/5
f 152/1/5 150/1/5 149/1/5
f 153/1/5 150/1/5 152/1/5
f 156/1/5 152/1/5 151/1/5
f 156/1/5 154/1/5 153/1/5
f 156/1/5 153/1/5 152/1/5
f 157/1/5 154/1/5 156/1/5
f 159/2/5 156/2/5 155/2/5
f 162/2/5 158/2/5 157/2/5
f 163/2/5 160/2/5 159/2/5
f 163/2/5 159/2/5 155/2/5
f 164/2/5 160/2/5 163/2/5
f 165/2/5 162/2/5 161/2/5
f 166/2/5 158/2/5 162/2/5
f 166/2/5 162/2/5 165/2/5
f 171/4/5 168/4/5 167/4/5
f 172/4/5 168/4/5 171/4/5
f 173/4/5 170/4/5 169/4/5
f 174/4/5 170/4/5 173/4/5
f 177/2/5 176/2/5 175/2/5
f 178/2/5 176/2/5 177/2/5
f 179/1/6 180/1/6 182/1/6
f 182/1/6 180/1/6 183/1/6
f 181/1/6 182/1/6 185/1/6
f 183/1/6 184/1/6 185/1/6
f 182/1/6 183/1/6 185/1/6
f 185/1/6 184/1/6 186/1/6
f 187/4/6 188/4/6 191/4/6
f 191/4/6 188/4/6 192/4/6
f 189/4/6 190/4/6 193/4/6
f 193/4/6 190/4/6 194/4/6
f 195/2/6 196/2/6 197/2/6
f 197/2/6 196/2/6 198/2/6
f 195/2/6 197/2/6 199/2/6
f 198/2/6 196/2/6 200/2/6
f 195/2/6 199/2/6 201/2/6
f 199/2/6 200/2/6 201/2/6
f 200/2/6 196/2/6 202/2/6
f 201/2/6 200/2/6 202/2/6
f 203/2/6 204/2/6 205/2/6
f 205/2/6 204/2/6 206/2/6
f 207/2/6 208/2/6 209/2/6
f 209/2/6 208/2/6 210/2/6
