# MagicaVoxel @ Ephtracy

# group
o 

# material
mtllib glider.mtl
usemtl palette

# normals
vn -1 0 0
vn 1 0 0
vn 0 0 1
vn 0 0 -1
vn 0 -1 0
vn 0 1 0

# texcoords
vt 0.0175781 0.5
vt 0.0644531 0.5
vt 0.134766 0.5
vt 0.404297 0.5
vt 0.748047 0.5
vt 0.923828 0.5
vt 0.947266 0.5

# verts
v -0.8 1.9 -0.9
v -0.8 1.9 -1.1
v -0.8 2 -0.9
v -0.8 2 -1.1
v -0.7 1.9 -0.7
v -0.7 1.9 -0.9
v -0.7 2 -0.7
v -0.7 2 -0.9
v -0.6 1.9 -0.5
v -0.6 1.9 -0.7
v -0.6 2 -0.5
v -0.6 2 -0.7
v -0.5 1.9 -0.3
v -0.5 1.9 -0.5
v -0.5 2 -0.3
v -0.5 2 -0.5
v -0.4 1.9 -0.1
v -0.4 1.9 -0.3
v -0.4 2 -0.1
v -0.4 2 -0.3
v -0.3 1.9 0.1
v -0.3 1.9 -0.1
v -0.3 2 0.1
v -0.3 2 -0.1
v -0.2 1.9 0.2
v -0.2 1.9 0.1
v -0.2 2 0.2
v -0.2 2 0.1
v -0.1 1.9 0.3
v -0.1 1.9 0.2
v -0.1 2 0.3
v -0.1 2 0.2
v 5.96046e-08 1.9 0.3
v 5.96046e-08 1.9 0.2
v 5.96046e-08 2 0.3
v 5.96046e-08 2 0.2
v 0.1 1.9 0.2
v 0.1 1.9 0.1
v 0.1 2 0.2
v 0.1 2 0.1
v 0.2 1.9 0.1
v 0.2 1.9 -0.1
v 0.2 2 0.1
v 0.2 2 -0.1
v 0.3 1.9 -0.1
v 0.3 1.9 -0.3
v 0.3 2 -0.1
v 0.3 2 -0.3
v 0.4 1.9 -0.3
v 0.4 1.9 -0.5
v 0.4 2 -0.3
v 0.4 2 -0.5
v 0.5 1.9 -0.5
v 0.5 1.9 -0.7
v 0.5 2 -0.5
v 0.5 2 -0.7
v 0.6 1.9 -0.7
v 0.6 1.9 -0.9
v 0.6 2 -0.7
v 0.6 2 -0.9
v 0.7 1.9 -0.9
v 0.7 1.9 -1.1
v 0.7 2 -0.9
v 0.7 2 -1.1
v -0.1 1.9 0.3
v -0.1 2 0.3
v 5.96046e-08 1.9 0.3
v 5.96046e-08 2 0.3
v -0.2 1.9 0.2
v -0.2 2 0.2
v -0.1 1.9 0.2
v -0.1 2 0.2
v 5.96046e-08 1.9 0.2
v 5.96046e-08 2 0.2
v 0.1 1.9 0.2
v 0.1 2 0.2
v -0.3 1.9 0.1
v -0.3 2 0.1
v -0.2 1.9 0.1
v -0.2 2 0.1
v 0.1 1.9 0.1
v 0.1 2 0.1
v 0.2 1.9 0.1
v 0.2 2 0.1
v -0.4 1.9 -0.1
v -0.4 2 -0.1
v -0.3 1.9 -0.1
v -0.3 2 -0.1
v 0.2 1.9 -0.1
v 0.2 2 -0.1
v 0.3 1.9 -0.1
v 0.3 2 -0.1
v -0.5 1.9 -0.3
v -0.5 2 -0.3
v -0.4 1.9 -0.3
v -0.4 2 -0.3
v 0.3 1.9 -0.3
v 0.3 2 -0.3
v 0.4 1.9 -0.3
v 0.4 2 -0.3
v -0.6 1.9 -0.5
v -0.6 2 -0.5
v -0.5 1.9 -0.5
v -0.5 2 -0.5
v 0.4 1.9 -0.5
v 0.4 2 -0.5
v 0.5 1.9 -0.5
v 0.5 2 -0.5
v -0.7 1.9 -0.7
v -0.7 2 -0.7
v -0.6 1.9 -0.7
v -0.6 2 -0.7
v 0.5 1.9 -0.7
v 0.5 2 -0.7
v 0.6 1.9 -0.7
v 0.6 2 -0.7
v -0.8 1.9 -0.9
v -0.8 2 -0.9
v -0.7 1.9 -0.9
v -0.7 2 -0.9
v 0.6 1.9 -0.9
v 0.6 2 -0.9
v 0.7 1.9 -0.9
v 0.7 2 -0.9
v -0.8 1.9 -1.1
v -0.8 2 -1.1
v 0.7 1.9 -1.1
v 0.7 2 -1.1
v -0.1 1.9 0.3
v 5.96046e-08 1.9 0.3
v -0.2 1.9 0.2
v -0.1 1.9 0.2
v 5.96046e-08 1.9 0.2
v 0.1 1.9 0.2
v -0.3 1.9 0.1
v -0.2 1.9 0.1
v 0.1 1.9 0.1
v 0.2 1.9 0.1
v -0.4 1.9 -0.1
v -0.3 1.9 -0.1
v 0.2 1.9 -0.1
v 0.3 1.9 -0.1
v -0.5 1.9 -0.3
v -0.4 1.9 -0.3
v 0.3 1.9 -0.3
v 0.4 1.9 -0.3
v -0.6 1.9 -0.5
v -0.5 1.9 -0.5
v 0.4 1.9 -0.5
v 0.5 1.9 -0.5
v -0.7 1.9 -0.7
v -0.6 1.9 -0.7
v 0.5 1.9 -0.7
v 0.6 1.9 -0.7
v -0.8 1.9 -0.9
v -0.7 1.9 -0.9
v 0.6 1.9 -0.9
v 0.7 1.9 -0.9
v -0.8 1.9 -1.1
v 0.7 1.9 -1.1
v -0.1 2 0.3
v 5.96046e-08 2 0.3
v -0.2 2 0.2
v -0.1 2 0.2
v 5.96046e-08 2 0.2
v 0.1 2 0.2
v -0.3 2 0.1
v -0.2 2 0.1
v 0.1 2 0.1
v 0.2 2 0.1
v -0.4 2 -0.1
v -0.3 2 -0.1
v 0.2 2 -0.1
v 0.3 2 -0.1
v -0.5 2 -0.3
v -0.4 2 -0.3
v 0.3 2 -0.3
v 0.4 2 -0.3
v -0.6 2 -0.5
v -0.5 2 -0.5
v 0.4 2 -0.5
v 0.5 2 -0.5
v -0.7 2 -0.7
v -0.6 2 -0.7
v 0.5 2 -0.7
v 0.6 2 -0.7
v -0.8 2 -0.9
v -0.7 2 -0.9
v 0.6 2 -0.9
v 0.7 2 -0.9
v -0.8 2 -1.1
v 0.7 2 -1.1

# faces
f 3/4/1 2/4/1 1/4/1
f 4/4/1 2/4/1 3/4/1
f 7/7/1 6/7/1 5/7/1
f 8/7/1 6/7/1 7/7/1
f 11/6/1 10/6/1 9/6/1
f 12/6/1 10/6/1 11/6/1
f 15/5/1 14/5/1 13/5/1
f 16/5/1 14/5/1 15/5/1
f 19/1/1 18/1/1 17/1/1
f 20/1/1 18/1/1 19/1/1
f 23/2/1 22/2/1 21/2/1
f 24/2/1 22/2/1 23/2/1
f 27/3/1 26/3/1 25/3/1
f 28/3/1 26/3/1 27/3/1
f 31/3/1 30/3/1 29/3/1
f 32/3/1 30/3/1 31/3/1
f 33/3/2 34/3/2 35/3/2
f 35/3/2 34/3/2 36/3/2
f 37/3/2 38/3/2 39/3/2
f 39/3/2 38/3/2 40/3/2
f 41/2/2 42/2/2 43/2/2
f 43/2/2 42/2/2 44/2/2
f 45/1/2 46/1/2 47/1/2
f 47/1/2 46/1/2 48/1/2
f 49/5/2 50/5/2 51/5/2
f 51/5/2 50/5/2 52/5/2
f 53/6/2 54/6/2 55/6/2
f 55/6/2 54/6/2 56/6/2
f 57/7/2 58/7/2 59/7/2
f 59/7/2 58/7/2 60/7/2
f 61/4/2 62/4/2 63/4/2
f 63/4/2 62/4/2 64/4/2
f 67/3/3 66/3/3 65/3/3
f 68/3/3 66/3/3 67/3/3
f 71/3/3 70/3/3 69/3/3
f 72/3/3 70/3/3 71/3/3
f 75/3/3 74/3/3 73/3/3
f 76/3/3 74/3/3 75/3/3
f 79/2/3 78/2/3 77/2/3
f 80/2/3 78/2/3 79/2/3
f 83/2/3 82/2/3 81/2/3
f 84/2/3 82/2/3 83/2/3
f 87/1/3 86/1/3 85/1/3
f 88/1/3 86/1/3 87/1/3
f 91/1/3 90/1/3 89/1/3
f 92/1/3 90/1/3 91/1/3
f 95/5/3 94/5/3 93/5/3
f 96/5/3 94/5/3 95/5/3
f 99/5/3 98/5/3 97/5/3
f 100/5/3 98/5/3 99/5/3
f 103/6/3 102/6/3 101/6/3
f 104/6/3 102/6/3 103/6/3
f 107/6/3 106/6/3 105/6/3
f 108/6/3 106/6/3 107/6/3
f 111/7/3 110/7/3 109/7/3
f 112/7/3 110/7/3 111/7/3
f 115/7/3 114/7/3 113/7/3
f 116/7/3 114/7/3 115/7/3
f 119/4/3 118/4/3 117/4/3
f 120/4/3 118/4/3 119/4/3
f 123/4/3 122/4/3 121/4/3
f 124/4/3 122/4/3 123/4/3
f 125/4/4 126/4/4 127/4/4
f 127/4/4 126/4/4 128/4/4
f 132/3/5 130/3/5 129/3/5
f 133/3/5 130/3/5 132/3/5
f 136/3/5 132/3/5 131/3/5
f 136/3/5 134/3/5 133/3/5
f 136/3/5 133/3/5 132/3/5
f 137/3/5 134/3/5 136/3/5
f 140/2/5 136/2/5 135/2/5
f 140/2/5 138/2/5 137/2/5
f 140/2/5 137/2/5 136/2/5
f 141/2/5 138/2/5 140/2/5
f 144/1/5 140/1/5 139/1/5
f 144/1/5 142/1/5 141/1/5
f 144/1/5 141/1/5 140/1/5
f 145/1/5 142/1/5 144/1/5
f 148/5/5 144/5/5 143/5/5
f 148/5/5 146/5/5 145/5/5
f 148/5/5 145/5/5 144/5/5
f 149/5/5 146/5/5 148/5/5
f 152/6/5 148/6/5 147/6/5
f 152/6/5 150/6/5 149/6/5
f 152/6/5 149/6/5 148/6/5
f 153/6/5 150/6/5 152/6/5
f 156/7/5 152/7/5 151/7/5
f 156/7/5 154/7/5 153/7/5
f 156/7/5 153/7/5 152/7/5
f 157/7/5 154/7/5 156/7/5
f 159/4/5 156/4/5 155/4/5
f 159/4/5 158/4/5 157/4/5
f 159/4/5 157/4/5 156/4/5
f 160/4/5 158/4/5 159/4/5
f 161/3/6 162/3/6 164/3/6
f 164/3/6 162/3/6 165/3/6
f 163/3/6 164/3/6 168/3/6
f 165/3/6 166/3/6 168/3/6
f 164/3/6 165/3/6 168/3/6
f 168/3/6 166/3/6 169/3/6
f 167/2/6 168/2/6 172/2/6
f 169/2/6 170/2/6 172/2/6
f 168/2/6 169/2/6 172/2/6
f 172/2/6 170/2/6 173/2/6
f 171/1/6 172/1/6 176/1/6
f 173/1/6 174/1/6 176/1/6
f 172/1/6 173/1/6 176/1/6
f 176/1/6 174/1/6 177/1/6
f 175/5/6 176/5/6 180/5/6
f 177/5/6 178/5/6 180/5/6
f 176/5/6 177/5/6 180/5/6
f 180/5/6 178/5/6 181/5/6
f 179/6/6 180/6/6 184/6/6
f 181/6/6 182/6/6 184/6/6
f 180/6/6 181/6/6 184/6/6
f 184/6/6 182/6/6 185/6/6
f 183/7/6 184/7/6 188/7/6
f 185/7/6 186/7/6 188/7/6
f 184/7/6 185/7/6 188/7/6
f 188/7/6 186/7/6 189/7/6
f 187/4/6 188/4/6 191/4/6
f 189/4/6 190/4/6 191/4/6
f 188/4/6 189/4/6 191/4/6
f 191/4/6 190/4/6 192/4/6
